<svg width="134" height="134" viewBox="0 0 134 134" fill="none" xmlns="http://www.w3.org/2000/svg">
<circle cx="67" cy="67" r="67" fill="#191717"/>
<path d="M19 67.7491C19 65.4018 20.893 63.499 23.2282 63.499H51.3333V91.7499C51.3333 94.0971 49.4403 96 47.1051 96H23.2282C20.893 96 19 94.0971 19 91.7499V67.7491Z" fill="#FF5353"/>
<path d="M76.4487 88.7446L51.3333 63.499V41.2587C51.3333 37.4722 55.8877 35.5759 58.5513 38.2534L83.6667 63.499V85.7393C83.6667 89.5257 79.1123 91.422 76.4487 88.7446Z" fill="#FF5353"/>
<path d="M108.782 88.7446L83.6667 63.499V41.2587C83.6667 37.4722 88.221 35.5759 90.8847 38.2534L114.762 62.2541C115.555 63.0512 116 64.1322 116 65.2594V85.7393C116 89.5257 111.446 91.422 108.782 88.7446Z" fill="#FF5353"/>
</svg>
